<?xml version="1.0" standalone="no"?>
<!DOCTYPE svg PUBLIC "-//W3C//DTD SVG 20010904//EN"
 "http://www.w3.org/TR/2001/REC-SVG-20010904/DTD/svg10.dtd">
<svg version="1.0" xmlns="http://www.w3.org/2000/svg"
 width="384.000000pt" height="384.000000pt" viewBox="0 0 384.000000 384.000000"
 preserveAspectRatio="xMidYMid meet">
<metadata>
Created by potrace 1.14, written by Peter Selinger 2001-2017
</metadata>
<g transform="translate(0.000000,384.000000) scale(0.100000,-0.100000)"
fill="#000000" stroke="none">
<path d="M0 3739 l0 -98 32 -22 c49 -33 128 -119 134 -146 4 -12 11 -23 17
-23 6 0 8 -3 5 -6 -4 -3 1 -22 10 -42 15 -34 16 -171 17 -1477 2 -1426 1
-1475 -30 -1497 -5 -4 -6 -8 -2 -8 11 0 -51 -88 -88 -125 -16 -17 -45 -41 -62
-53 l-33 -23 0 -105 c0 -101 1 -104 23 -105 153 -4 1468 0 1475 5 6 4 10 32 9
63 -2 51 -4 57 -27 64 -14 3 -59 16 -101 28 -41 11 -102 32 -135 47 -32 14
-61 25 -63 24 -2 -1 -7 2 -10 7 -3 4 -22 17 -41 27 -38 22 -82 58 -114 95 -12
13 -26 29 -31 35 -6 6 -22 34 -35 61 l-24 50 -2 545 c-2 540 -1 545 20 575 37
53 120 128 130 118 3 -4 6 -2 6 4 0 22 291 135 308 119 3 -3 10 -2 16 3 14 11
162 32 244 35 34 1 64 5 68 8 3 4 16 3 28 -2 13 -4 29 -4 39 1 12 7 17 6 17
-3 0 -8 3 -9 8 -3 9 14 224 14 234 0 5 -7 8 -7 8 0 0 6 17 9 37 7 21 -1 70 -4
108 -7 68 -4 112 -8 225 -20 45 -5 124 -20 250 -50 32 -7 127 -48 160 -68 88
-54 113 -104 111 -228 l-1 -86 127 1 c101 1 140 -3 186 -18 31 -10 57 -23 57
-27 0 -5 5 -9 10 -9 25 0 77 -69 87 -116 12 -53 4 -184 -13 -242 -10 -31 -18
-59 -19 -62 -14 -59 -141 -203 -215 -243 -48 -25 -140 -60 -205 -76 l-40 -11
-16 -82 c-15 -77 -61 -196 -91 -235 -40 -50 -119 -123 -158 -145 -66 -37 -110
-50 -211 -63 -30 -4 -57 -11 -60 -16 -7 -12 -4 -97 4 -105 5 -5 1397 -9 1450
-5 4 1 7 47 7 104 l0 102 -51 30 c-64 38 -115 99 -126 150 -5 22 -8 723 -8
1557 l1 1516 34 50 c19 28 59 66 91 88 l58 39 1 80 0 80 -664 0 c-365 0 -667
-2 -670 -5 -11 -11 -14 -63 -6 -86 5 -13 17 -24 26 -24 28 0 154 -40 210 -67
60 -28 119 -78 139 -117 12 -23 14 -133 15 -654 l0 -627 -972 1 c-535 1 -976
2 -981 3 -4 0 -7 256 -7 568 l1 567 29 51 c36 62 129 161 194 205 60 40 136
70 196 77 25 2 49 8 53 12 4 5 7 35 5 67 l-3 59 -702 1 -703 1 0 -98z"/>
<path d="M1688 1705 c-2 -1 -30 -6 -63 -10 -125 -15 -181 -24 -249 -41 -33 -9
-68 -16 -78 -17 -10 -1 -18 -5 -18 -9 0 -4 -8 -8 -17 -8 -20 -1 -74 -26 -114
-53 -36 -24 -53 -66 -40 -100 11 -29 73 -72 131 -92 3 -1 16 -6 30 -12 34 -14
193 -50 253 -57 26 -3 68 -9 94 -12 26 -3 82 -7 123 -8 42 -2 81 -5 86 -9 6
-3 16 -2 24 3 7 4 23 4 35 0 14 -5 27 -4 34 3 6 6 11 7 11 1 0 -5 16 -9 35 -9
19 0 35 4 35 9 0 6 5 5 12 -2 7 -7 17 -8 29 -2 12 7 20 6 24 0 4 -6 11 -7 17
-4 6 4 43 9 82 10 39 2 87 5 106 8 98 14 126 18 140 23 8 3 31 6 50 8 56 5
198 54 249 86 71 43 85 97 37 145 -46 46 -245 109 -406 130 -30 3 -68 9 -85
11 -33 6 -562 13 -567 8z"/>
<path d="M3006 1295 c-14 -8 -26 -11 -26 -7 0 8 -49 -47 -51 -57 -6 -28 -3
-381 3 -381 15 0 85 43 143 88 164 128 211 253 122 325 -49 40 -144 56 -191
32z"/>
</g>
</svg>
